<?xml version="1.0" encoding="UTF-8"?>
<svg xmlns="http://www.w3.org/2000/svg" xmlns:xlink="http://www.w3.org/1999/xlink" width="589.09pt" height="222.3pt" viewBox="0 0 589.09 222.3" version="1.1">
<defs>
<clipPath id="clip1">
  <path d="M 0 0 L 131 0 L 131 222.300781 L 0 222.300781 Z M 0 0 "/>
</clipPath>
<clipPath id="clip2">
  <path d="M 131 91 L 203 91 L 203 222.300781 L 131 222.300781 Z M 131 91 "/>
</clipPath>
<clipPath id="clip3">
  <path d="M 230 116 L 589.089844 116 L 589.089844 122 L 230 122 Z M 230 116 "/>
</clipPath>
</defs>
<g id="surface1">
<g clip-path="url(#clip1)" clip-rule="nonzero">
<path style=" stroke:none;fill-rule:evenodd;fill:rgb(92.89856%,10.998535%,13.699341%);fill-opacity:1;" d="M 0 -0.00390625 L 70.8125 -0.00390625 L 70.8125 130.828125 C 81.78125 101.324219 103.296875 81.863281 130.113281 66.03125 C 130.292969 68.25 130.507813 69.644531 130.507813 71.039063 C 130.527344 99.53125 130.460938 128.027344 130.609375 156.523438 C 130.628906 160.113281 129.695313 162.15625 126.066406 162.785156 C 117.261719 164.316406 108.507813 166.90625 99.660156 167.25 C 87.246094 167.734375 76.84375 163.140625 71.175781 150.558594 L 71.175781 222.242188 L 0 222.242188 "/>
</g>
<g clip-path="url(#clip2)" clip-rule="nonzero">
<path style=" stroke:none;fill-rule:evenodd;fill:rgb(92.89856%,10.998535%,13.699341%);fill-opacity:1;" d="M 202.335938 222.300781 L 131.457031 222.300781 L 131.457031 216.671875 C 131.457031 200.023438 131.585938 183.367188 131.363281 166.71875 C 131.3125 162.714844 132.445313 160.625 136.222656 158.882813 C 157.796875 148.945313 176.027344 134.640625 189.503906 114.988281 C 194.863281 107.175781 198.613281 98.253906 202.335938 91.261719 "/>
</g>
<path style=" stroke:none;fill-rule:evenodd;fill:rgb(92.89856%,10.998535%,13.699341%);fill-opacity:1;" d="M 202.40625 0.109375 L 202.40625 72.460938 C 198.875 63.027344 192.925781 57.640625 184.28125 55.148438 C 176.042969 52.777344 167.722656 52.933594 159.621094 55.011719 C 151.78125 57.023438 144.199219 60.054688 136.515625 62.691406 C 135.007813 63.207031 133.570313 63.945313 131.703125 64.753906 L 131.703125 0.109375 "/>
<g clip-path="url(#clip3)" clip-rule="nonzero">
<path style=" stroke:none;fill-rule:evenodd;fill:rgb(92.89856%,10.998535%,13.699341%);fill-opacity:1;" d="M 589.085938 116.105469 L 589.085938 121.238281 L 230.855469 121.238281 C 230.738281 119.65625 230.621094 118.085938 230.472656 116.105469 "/>
</g>
<path style=" stroke:none;fill-rule:nonzero;fill:rgb(92.89856%,10.998535%,13.699341%);fill-opacity:1;" d="M 303.90625 102.480469 L 309.007813 102.480469 L 309.007813 65.179688 L 303.90625 65.179688 Z M 303.90625 102.480469 "/>
<path style=" stroke:none;fill-rule:nonzero;fill:rgb(92.89856%,10.998535%,13.699341%);fill-opacity:1;" d="M 331.769531 65.179688 L 337.722656 65.179688 L 356.324219 95.316406 L 356.324219 65.179688 L 361.148438 65.179688 L 361.148438 102.480469 L 355.46875 102.480469 L 336.59375 72.378906 L 336.59375 102.480469 L 331.769531 102.480469 "/>
<path style=" stroke:none;fill-rule:nonzero;fill:rgb(92.89856%,10.998535%,13.699341%);fill-opacity:1;" d="M 398.027344 98.160156 C 399.699219 98.160156 401.074219 97.984375 402.148438 97.628906 C 404.070313 96.96875 405.640625 95.699219 406.867188 93.820313 C 407.84375 92.3125 408.546875 90.386719 408.976563 88.03125 C 409.226563 86.628906 409.347656 85.324219 409.347656 84.121094 C 409.347656 79.5 408.449219 75.910156 406.65625 73.355469 C 404.859375 70.800781 401.96875 69.519531 397.976563 69.519531 L 389.214844 69.519531 L 389.214844 98.160156 Z M 384.109375 65.179688 L 399.019531 65.179688 C 404.078125 65.179688 408.003906 67 410.796875 70.640625 C 413.285156 73.921875 414.527344 78.128906 414.527344 83.257813 C 414.527344 87.21875 413.792969 90.800781 412.324219 93.996094 C 409.734375 99.652344 405.28125 102.480469 398.96875 102.480469 L 384.109375 102.480469 "/>
<path style=" stroke:none;fill-rule:nonzero;fill:rgb(92.89856%,10.998535%,13.699341%);fill-opacity:1;" d="M 441.453125 65.179688 L 441.453125 88.234375 C 441.453125 90.941406 441.964844 93.195313 442.988281 94.988281 C 444.507813 97.695313 447.066406 99.050781 450.667969 99.050781 C 454.984375 99.050781 457.917969 97.585938 459.472656 94.660156 C 460.308594 93.066406 460.726563 90.925781 460.726563 88.234375 L 460.726563 65.179688 L 465.828125 65.179688 L 465.828125 86.128906 C 465.828125 90.714844 465.210938 94.242188 463.96875 96.714844 C 461.691406 101.21875 457.394531 103.46875 451.078125 103.46875 C 444.757813 103.46875 440.46875 101.21875 438.210938 96.714844 C 436.972656 94.242188 436.351563 90.714844 436.351563 86.128906 L 436.351563 65.179688 "/>
<path style=" stroke:none;fill-rule:nonzero;fill:rgb(92.89856%,10.998535%,13.699341%);fill-opacity:1;" d="M 491.410156 90.445313 C 491.523438 92.558594 492.003906 94.277344 492.851563 95.597656 C 494.464844 98.070313 497.3125 99.304688 501.386719 99.304688 C 503.214844 99.304688 504.878906 99.035156 506.378906 98.492188 C 509.277344 97.445313 510.730469 95.566406 510.730469 92.855469 C 510.730469 90.824219 510.113281 89.378906 508.886719 88.515625 C 507.636719 87.667969 505.6875 86.933594 503.03125 86.304688 L 498.136719 85.164063 C 494.9375 84.417969 492.675781 83.597656 491.347656 82.699219 C 489.050781 81.144531 487.902344 78.816406 487.902344 75.71875 C 487.902344 72.367188 489.03125 69.613281 491.289063 67.464844 C 493.546875 65.316406 496.742188 64.242188 500.878906 64.242188 C 504.679688 64.242188 507.914063 65.183594 510.574219 67.070313 C 513.234375 68.960938 514.5625 71.976563 514.5625 76.125 L 509.816406 76.125 C 509.574219 74.128906 509.054688 72.59375 508.257813 71.527344 C 506.78125 69.582031 504.273438 68.609375 500.734375 68.609375 C 497.878906 68.609375 495.828125 69.234375 494.578125 70.488281 C 493.328125 71.738281 492.703125 73.195313 492.703125 74.855469 C 492.703125 76.683594 493.441406 78.019531 494.917969 78.867188 C 495.886719 79.40625 498.074219 80.085938 501.484375 80.898438 L 506.554688 82.089844 C 508.996094 82.664063 510.882813 83.453125 512.214844 84.453125 C 514.507813 86.195313 515.65625 88.726563 515.65625 92.042969 C 515.65625 96.175781 514.191406 99.128906 511.261719 100.90625 C 508.332031 102.683594 504.925781 103.570313 501.046875 103.570313 C 496.523438 103.570313 492.980469 102.386719 490.425781 100.015625 C 487.863281 97.664063 486.609375 94.472656 486.660156 90.445313 "/>
<path style=" stroke:none;fill-rule:nonzero;fill:rgb(92.89856%,10.998535%,13.699341%);fill-opacity:1;" d="M 231.148438 138.859375 L 236.253906 138.859375 L 236.253906 154.269531 L 255.421875 154.269531 L 255.421875 138.859375 L 260.523438 138.859375 L 260.523438 176.15625 L 255.421875 176.15625 L 255.421875 158.714844 L 236.253906 158.714844 L 236.253906 176.15625 L 231.148438 176.15625 "/>
<path style=" stroke:none;fill-rule:nonzero;fill:rgb(92.89856%,10.998535%,13.699341%);fill-opacity:1;" d="M 310.441406 167.964844 C 312.429688 164.773438 313.421875 161.097656 313.421875 156.949219 C 313.421875 152.5625 312.277344 149.027344 309.984375 146.351563 C 307.6875 143.675781 304.554688 142.335938 300.574219 142.335938 C 296.714844 142.335938 293.566406 143.664063 291.132813 146.316406 C 288.691406 148.964844 287.476563 152.875 287.476563 158.042969 C 287.476563 162.175781 288.519531 165.660156 290.609375 168.5 C 292.699219 171.335938 296.089844 172.753906 300.777344 172.753906 C 305.230469 172.753906 308.449219 171.15625 310.441406 167.964844 M 314.894531 144.191406 C 317.367188 147.488281 318.601563 151.714844 318.601563 156.859375 C 318.601563 162.429688 317.191406 167.058594 314.363281 170.75 C 311.046875 175.082031 306.3125 177.25 300.167969 177.25 C 294.429688 177.25 289.921875 175.351563 286.636719 171.5625 C 283.707031 167.90625 282.242188 163.28125 282.242188 157.699219 C 282.242188 152.652344 283.496094 148.335938 286.003906 144.75 C 289.21875 140.144531 293.972656 137.84375 300.269531 137.84375 C 306.855469 137.84375 311.730469 139.957031 314.894531 144.191406 "/>
<path style=" stroke:none;fill-rule:nonzero;fill:rgb(92.89856%,10.998535%,13.699341%);fill-opacity:1;" d="M 343.519531 164.121094 C 343.636719 166.238281 344.117188 167.957031 344.964844 169.277344 C 346.578125 171.746094 349.421875 172.980469 353.5 172.980469 C 355.324219 172.980469 356.988281 172.710938 358.488281 172.171875 C 361.390625 171.121094 362.84375 169.242188 362.84375 166.535156 C 362.84375 164.503906 362.226563 163.054688 361 162.191406 C 359.75 161.347656 357.800781 160.609375 355.144531 159.980469 L 350.25 158.839844 C 347.050781 158.097656 344.789063 157.273438 343.460938 156.378906 C 341.164063 154.820313 340.015625 152.492188 340.015625 149.394531 C 340.015625 146.042969 341.144531 143.292969 343.402344 141.144531 C 345.660156 138.992188 348.855469 137.917969 352.988281 137.917969 C 356.792969 137.917969 360.027344 138.863281 362.6875 140.75 C 365.347656 142.636719 366.675781 145.65625 366.675781 149.800781 L 361.929688 149.800781 C 361.6875 147.804688 361.167969 146.273438 360.371094 145.207031 C 358.894531 143.261719 356.386719 142.285156 352.847656 142.285156 C 349.992188 142.285156 347.941406 142.914063 346.691406 144.164063 C 345.441406 145.417969 344.816406 146.875 344.816406 148.53125 C 344.816406 150.359375 345.554688 151.699219 347.03125 152.542969 C 347.996094 153.085938 350.1875 153.761719 353.597656 154.574219 L 358.667969 155.769531 C 361.109375 156.34375 362.996094 157.132813 364.324219 158.128906 C 366.621094 159.875 367.769531 162.402344 367.769531 165.722656 C 367.769531 169.851563 366.304688 172.804688 363.375 174.582031 C 360.445313 176.359375 357.039063 177.25 353.160156 177.25 C 348.636719 177.25 345.09375 176.0625 342.535156 173.695313 C 339.976563 171.339844 338.722656 168.152344 338.773438 164.121094 "/>
<path style=" stroke:none;fill-rule:nonzero;fill:rgb(92.89856%,10.998535%,13.699341%);fill-opacity:1;" d="M 410.585938 143.988281 C 409.476563 143.464844 407.953125 143.199219 406.023438 143.199219 L 396.039063 143.199219 L 396.039063 156.125 L 406.023438 156.125 C 408.273438 156.125 410.101563 155.640625 411.503906 154.675781 C 412.90625 153.710938 413.609375 152.011719 413.609375 149.574219 C 413.609375 146.832031 412.601563 144.96875 410.585938 143.988281 M 390.984375 138.859375 L 407.675781 138.859375 C 410.976563 138.859375 413.640625 139.792969 415.671875 141.664063 C 417.699219 143.535156 418.714844 146.164063 418.714844 149.546875 C 418.714844 152.460938 417.808594 154.992188 415.996094 157.152344 C 414.1875 159.308594 411.414063 160.390625 407.6875 160.390625 L 396.039063 160.390625 L 396.039063 176.15625 L 390.984375 176.15625 "/>
<path style=" stroke:none;fill-rule:nonzero;fill:rgb(92.89856%,10.998535%,13.699341%);fill-opacity:1;" d="M 441.929688 176.15625 L 447.035156 176.15625 L 447.035156 138.859375 L 441.929688 138.859375 Z M 441.929688 176.15625 "/>
<path style=" stroke:none;fill-rule:nonzero;fill:rgb(92.89856%,10.998535%,13.699341%);fill-opacity:1;" d="M 497.953125 138.859375 L 497.953125 143.300781 L 485.382813 143.300781 L 485.382813 176.15625 L 480.28125 176.15625 L 480.28125 143.300781 L 467.714844 143.300781 L 467.714844 138.859375 "/>
<path style=" stroke:none;fill-rule:nonzero;fill:rgb(92.89856%,10.998535%,13.699341%);fill-opacity:1;" d="M 533.628906 160.871094 L 527.886719 144.394531 L 521.917969 160.871094 Z M 525.25 138.855469 L 530.953125 138.855469 L 544.488281 176.15625 L 538.953125 176.15625 L 535.0625 164.984375 L 520.429688 164.984375 L 516.382813 176.15625 L 511.203125 176.15625 "/>
<path style=" stroke:none;fill-rule:nonzero;fill:rgb(92.89856%,10.998535%,13.699341%);fill-opacity:1;" d="M 564.648438 138.859375 L 569.699219 138.859375 L 569.699219 171.714844 L 588.414063 171.714844 L 588.414063 176.15625 L 564.648438 176.15625 "/>
</g>
</svg>
