<?xml version="1.0" encoding="UTF-8"?>
<svg xmlns="http://www.w3.org/2000/svg" xmlns:xlink="http://www.w3.org/1999/xlink" width="785.4pt" height="118.1pt" viewBox="0 0 785.4 118.1" version="1.1">
<defs>
<clipPath id="clip1">
  <path d="M 722 40 L 785.398438 40 L 785.398438 78 L 722 78 Z M 722 40 "/>
</clipPath>
<clipPath id="clip2">
  <path d="M 164 98 L 331 98 L 331 118.101563 L 164 118.101563 Z M 164 98 "/>
</clipPath>
</defs>
<g id="surface1">
<path style=" stroke:none;fill-rule:evenodd;fill:rgb(73.631287%,84.764099%,0%);fill-opacity:1;" d="M 131.746094 13.121094 C 120.851563 17.347656 82.898438 34.945313 124.070313 83.390625 C 137.171875 98.796875 132.339844 94.980469 149.949219 114.0625 C 146.601563 100.882813 153.675781 68.453125 146.15625 54.042969 C 136.980469 36.445313 127.746094 35.746094 131.746094 13.121094 Z M 131.746094 13.121094 "/>
<path style=" stroke:none;fill-rule:evenodd;fill:rgb(0%,63.867188%,83.201599%);fill-opacity:1;" d="M 87.796875 1.140625 C 54.992188 26.273438 58.804688 54.027344 107.628906 81.890625 C 122.390625 90.3125 132.339844 94.980469 149.949219 114.0625 C 140.023438 93.09375 136.636719 68.757813 124.035156 48.953125 C 113.984375 33.15625 87.988281 27.960938 87.796875 1.140625 Z M 87.796875 1.140625 "/>
<path style=" stroke:none;fill-rule:evenodd;fill:rgb(94.921875%,49.414063%,0%);fill-opacity:1;" d="M 236.601563 33.980469 L 223.65625 33.980469 L 220.78125 36.234375 L 215.558594 40.644531 L 215.691406 40.730469 C 215.15625 40.835938 213.878906 42.058594 213.410156 42.390625 C 213.164063 42.570313 211.546875 43.757813 211.710938 44.050781 C 210.980469 44.109375 207.867188 47.199219 207.128906 47.765625 C 205.464844 49.023438 204.402344 50.070313 202.925781 51.242188 C 202.511719 51.570313 202.160156 51.855469 201.746094 52.152344 C 201.296875 52.476563 201.421875 52.550781 200.796875 53.007813 C 199.402344 54.011719 199.933594 53.863281 198.445313 53.863281 C 196.839844 53.863281 195.285156 53.863281 193.679688 53.863281 C 190.40625 53.863281 187.351563 53.863281 184.078125 53.863281 C 182.085938 53.863281 176.132813 54.070313 174.441406 53.8125 L 174.441406 34.292969 C 174.441406 34.09375 174.398438 34.109375 174.300781 33.980469 L 163.632813 33.980469 L 163.347656 34.1875 C 163.351563 34.191406 163.492188 34.382813 163.472656 34.394531 L 163.472656 79.660156 L 163.460938 80.078125 L 163.492188 80.59375 L 163.488281 80.886719 L 164.769531 80.875 L 172.734375 80.875 L 173.878906 80.90625 L 174.578125 80.804688 L 174.613281 62.449219 L 174.871094 62.21875 L 200.046875 62.226563 L 199.921875 62.304688 L 203.742188 65.128906 C 203.492188 65.574219 206.226563 67.183594 206.765625 67.695313 C 207.746094 68.621094 208.980469 69.371094 209.953125 70.234375 C 210.609375 70.820313 212.046875 71.824219 213.097656 72.625 C 213.628906 73.027344 214.210938 73.550781 214.6875 73.957031 C 215.074219 74.289063 216.316406 74.949219 216.117188 75.300781 C 216.714844 75.335938 216.867188 75.410156 216.777344 75.648438 L 217.96875 76.339844 C 217.722656 76.769531 220.296875 78.292969 220.800781 78.734375 C 221.441406 79.289063 223.179688 80.921875 223.941406 80.875 L 234.179688 80.875 L 235.320313 80.914063 L 236.742188 80.699219 C 235.992188 79.882813 230.253906 76.027344 230.484375 75.613281 C 229.960938 75.578125 229.21875 74.742188 228.671875 74.339844 C 228.089844 73.914063 227.277344 73.355469 226.800781 72.917969 C 226.671875 72.792969 223.4375 70.601563 223.65625 70.214844 L 223.539063 70.296875 L 211.699219 60.988281 L 211.566406 61.078125 C 211.910156 60.472656 209.527344 59.816406 209.433594 59.003906 L 209.308594 59.082031 L 208.203125 58.097656 L 218.980469 49.058594 L 226.933594 42.40625 L 236.753906 34.183594 Z M 236.601563 33.980469 "/>
<path style=" stroke:none;fill-rule:evenodd;fill:rgb(94.921875%,49.414063%,0%);fill-opacity:1;" d="M 395.476563 56.925781 C 395.476563 57.359375 395.773438 56.964844 395.339844 57.445313 C 395.507813 57.550781 395.476563 57.273438 395.476563 57.652344 L 395.421875 57.753906 L 395.421875 59.628906 L 395.476563 60.664063 C 395.761719 63.160156 396.507813 65.691406 397.675781 68.527344 C 397.964844 69.222656 399.289063 71.46875 400.0625 72.265625 C 400.671875 72.886719 402.683594 75.03125 403.453125 75.097656 L 403.300781 75.300781 C 403.578125 75.316406 405.878906 76.515625 406.59375 76.738281 C 407.132813 76.910156 409.871094 77.382813 410.269531 77.347656 L 451.234375 77.347656 L 452.371094 77.378906 C 454.046875 77.347656 455.671875 75.636719 456.429688 74.523438 C 456.941406 73.773438 457.136719 73.453125 457.429688 72.679688 C 457.804688 71.679688 458.195313 71.5625 456.214844 71.5625 L 455.785156 71.589844 L 455.074219 71.5625 L 454.648438 71.589844 L 453.9375 71.5625 L 453.507813 71.589844 L 452.796875 71.5625 L 452.371094 71.589844 L 451.660156 71.5625 L 451.234375 71.589844 L 450.523438 71.5625 L 450.097656 71.589844 L 449.386719 71.5625 L 448.960938 71.589844 L 448.246094 71.5625 L 447.820313 71.589844 L 447.109375 71.5625 L 446.683594 71.589844 L 445.972656 71.5625 L 445.546875 71.589844 L 444.835938 71.5625 L 444.40625 71.589844 L 443.695313 71.5625 L 443.269531 71.589844 L 442.558594 71.5625 L 442.128906 71.589844 L 441.421875 71.5625 L 440.992188 71.589844 L 440.28125 71.5625 L 439.855469 71.589844 L 439.144531 71.5625 L 438.71875 71.589844 L 438.007813 71.5625 L 437.578125 71.589844 L 436.867188 71.5625 L 436.441406 71.589844 L 435.730469 71.5625 L 435.304688 71.589844 L 434.59375 71.5625 L 434.164063 71.589844 L 433.453125 71.5625 L 433.027344 71.589844 L 432.316406 71.5625 L 431.890625 71.589844 L 431.179688 71.5625 L 430.753906 71.589844 L 430.039063 71.5625 L 429.613281 71.589844 L 428.902344 71.5625 L 428.476563 71.589844 L 427.765625 71.5625 L 427.339844 71.589844 L 426.628906 71.5625 L 426.199219 71.589844 L 425.488281 71.5625 L 425.0625 71.589844 L 424.351563 71.5625 L 423.925781 71.589844 L 423.214844 71.5625 L 422.785156 71.589844 L 422.074219 71.5625 L 421.648438 71.589844 L 420.9375 71.5625 L 420.511719 71.589844 L 419.800781 71.5625 L 419.378906 71.589844 L 418.660156 71.5625 L 418.234375 71.589844 L 417.523438 71.5625 L 417.097656 71.589844 L 416.386719 71.5625 L 415.964844 71.5625 C 413.183594 71.5625 411.269531 70.195313 409.496094 68.496094 C 408.550781 67.589844 408.148438 66.941406 407.410156 66.078125 C 407.277344 65.925781 405.859375 63.667969 405.859375 63.257813 C 405.859375 62.789063 407.929688 63 408.3125 63 C 409.191406 63 409.960938 63 410.878906 63 C 412.621094 63 414.320313 63 416.066406 63 C 419.578125 63 422.867188 62.996094 426.378906 63 C 428.558594 63 446.515625 63.128906 446.96875 62.945313 C 447.253906 62.796875 449.929688 60.417969 450.773438 59.804688 C 451.371094 59.371094 451.984375 58.730469 452.308594 58.144531 C 452.476563 57.832031 452.671875 57.777344 452.816406 57.242188 C 452.984375 56.617188 453.132813 56.542969 452.515625 56.496094 L 406.429688 56.496094 L 405.859375 56.511719 C 405.859375 53.507813 409.675781 47.683594 414.109375 47.683594 L 452.796875 47.683594 C 452.847656 47.546875 455.394531 45.191406 455.855469 44.519531 C 456.648438 43.363281 457.378906 41.992188 458.347656 40.9375 C 457.722656 40.75 427.253906 40.886719 423.746094 40.886719 C 420.863281 40.886719 418.027344 40.886719 415.140625 40.886719 C 412.902344 40.886719 408.171875 40.609375 405.046875 42.832031 C 404.691406 43.078125 404.164063 43.328125 403.949219 43.511719 C 403.671875 43.753906 403.628906 43.816406 403.09375 44.113281 C 402.945313 44.199219 401.800781 45.15625 401.355469 45.546875 C 400.421875 46.367188 399.210938 48.046875 398.398438 49.296875 C 397.691406 50.386719 396.859375 51.875 396.539063 53.109375 C 396.261719 54.175781 395.476563 56.035156 395.476563 56.925781 Z M 395.476563 56.925781 "/>
<path style=" stroke:none;fill-rule:evenodd;fill:rgb(94.921875%,49.414063%,0%);fill-opacity:1;" d="M 293.777344 77.378906 L 294.203125 77.347656 L 332.890625 77.347656 L 334.03125 77.34375 L 335.027344 77.375 L 335.171875 77.375 C 337.140625 77.375 337.878906 76.199219 338.910156 75.230469 C 339.488281 74.6875 341.03125 72.085938 340.722656 71.628906 L 340.148438 71.5625 L 339.722656 71.589844 L 339.007813 71.5625 L 338.585938 71.589844 L 337.871094 71.5625 L 337.445313 71.589844 L 336.734375 71.5625 L 336.308594 71.589844 L 335.597656 71.5625 L 335.171875 71.589844 L 334.460938 71.5625 L 334.03125 71.589844 L 333.320313 71.5625 L 332.894531 71.589844 L 332.183594 71.5625 L 331.753906 71.589844 L 331.046875 71.5625 L 330.617188 71.589844 L 329.90625 71.5625 L 329.480469 71.589844 L 328.769531 71.5625 L 328.34375 71.589844 L 327.628906 71.5625 L 327.203125 71.589844 L 326.492188 71.5625 L 326.066406 71.589844 L 325.355469 71.5625 L 324.929688 71.589844 L 324.21875 71.5625 L 323.789063 71.589844 L 323.078125 71.5625 L 322.652344 71.589844 L 321.941406 71.5625 L 321.515625 71.589844 L 320.804688 71.5625 L 320.378906 71.589844 L 319.664063 71.5625 L 319.238281 71.589844 L 318.527344 71.5625 L 318.101563 71.589844 L 317.390625 71.5625 L 316.964844 71.589844 L 316.253906 71.5625 L 315.824219 71.589844 L 315.113281 71.5625 L 314.6875 71.589844 L 313.976563 71.5625 L 313.550781 71.589844 L 312.839844 71.5625 L 312.410156 71.589844 L 311.699219 71.5625 L 311.273438 71.589844 L 310.5625 71.5625 L 310.136719 71.589844 L 309.425781 71.5625 L 308.996094 71.589844 L 308.285156 71.5625 L 307.859375 71.589844 L 307.148438 71.5625 L 306.722656 71.589844 L 306.011719 71.5625 L 305.589844 71.589844 L 304.878906 71.5625 L 304.445313 71.589844 L 303.734375 71.5625 L 303.308594 71.589844 L 302.597656 71.5625 L 302.171875 71.589844 L 301.464844 71.5625 L 301.03125 71.589844 L 300.320313 71.5625 L 299.894531 71.589844 L 299.183594 71.5625 L 298.757813 71.5625 C 298.183594 71.5625 298.695313 71.542969 298.472656 71.667969 C 298.253906 71.558594 297.109375 71.3125 296.515625 71.136719 C 295.898438 70.957031 295.53125 70.820313 294.882813 70.34375 C 293.769531 69.523438 292.964844 69.050781 292.027344 68.058594 C 291.617188 67.625 290.527344 66.296875 290.265625 65.777344 C 289.964844 65.183594 289.746094 65.007813 289.546875 64.566406 C 289.351563 64.152344 289.101563 63.609375 288.800781 63.152344 C 289.359375 62.8125 307.90625 63 310.171875 63 C 313.753906 63 317.21875 62.996094 320.839844 62.996094 C 322.632813 63 324.378906 63 326.171875 63 C 327.128906 63 327.855469 62.996094 328.804688 62.996094 C 329.007813 62.996094 329.960938 63.089844 330.238281 62.820313 C 330.394531 62.671875 331.160156 62.011719 331.046875 61.804688 C 331.578125 61.769531 331.964844 61.191406 332.570313 60.738281 C 333.066406 60.371094 334.003906 59.796875 334.316406 59.414063 C 334.867188 58.75 335.070313 58.550781 335.449219 58.042969 C 335.902344 57.433594 335.839844 56.835938 336.023438 56.507813 L 335.3125 56.496094 L 291.503906 56.496094 L 290.933594 56.476563 L 289.796875 56.507813 C 288.492188 56.488281 288.769531 56.144531 289.023438 55.175781 C 289.226563 54.410156 289.597656 53.859375 289.878906 53.164063 C 290.1875 52.390625 292.054688 49.808594 292.78125 49.761719 C 292.613281 49.460938 293.539063 48.765625 294.21875 48.71875 L 294.0625 48.515625 C 294.902344 48.464844 295.402344 47.679688 297.902344 47.683594 C 299.703125 47.6875 301.507813 47.683594 303.308594 47.683594 C 306.910156 47.683594 310.515625 47.683594 314.117188 47.683594 C 321.277344 47.683594 328.4375 47.683594 335.597656 47.683594 C 337.339844 46.832031 340.859375 42.105469 341.296875 40.921875 L 340.859375 40.730469 C 340.121094 41.089844 330.605469 40.886719 329.019531 40.886719 C 325.058594 40.886719 321.214844 40.882813 317.214844 40.882813 C 313.253906 40.886719 309.40625 40.886719 305.40625 40.886719 C 303.421875 40.886719 301.488281 40.886719 299.503906 40.882813 C 297.953125 40.882813 295.101563 40.726563 293.316406 40.992188 C 288.070313 41.773438 284.253906 45.164063 281.835938 48.722656 C 279.128906 52.699219 278.488281 56.390625 278.488281 59.496094 C 278.488281 62.09375 279.84375 67.804688 281.839844 70.5 C 283.003906 72.082031 284.214844 73.742188 286.382813 75.199219 C 288.316406 76.5 291.414063 77.375 293.777344 77.375 Z M 293.777344 77.378906 "/>
<path style=" stroke:none;fill-rule:evenodd;fill:rgb(94.921875%,49.414063%,0%);fill-opacity:1;" d="M 596.03125 40.9375 L 596.007813 77.261719 L 596.882813 77.378906 C 596.96875 77.386719 597.925781 77.378906 598.019531 77.347656 L 604.847656 77.347656 L 605.984375 77.363281 L 606.558594 77.378906 L 606.597656 76.859375 L 606.597656 50.28125 L 606.617188 49.449219 L 606.554688 48.410156 C 607.101563 48.078125 624.089844 48.257813 626.148438 48.257813 C 629.46875 48.253906 632.570313 48.257813 635.890625 48.257813 C 637.546875 48.257813 639.144531 48.257813 640.796875 48.257813 C 642.183594 48.257813 642.179688 48.292969 643.199219 49.386719 C 643.441406 49.652344 644.5625 51.347656 644.515625 51.628906 L 644.515625 52.042969 L 644.53125 52.460938 C 644.472656 53.035156 643.476563 54.40625 643.464844 54.617188 C 643.410156 55.304688 642.078125 55.929688 641.546875 56.507813 L 640.839844 56.496094 L 614.664063 56.496094 L 614.09375 56.511719 C 613.53125 56.480469 613.753906 56.382813 613.097656 56.613281 C 613.097656 58.46875 613.472656 58.1875 614.980469 59.289063 C 616.003906 60.035156 617.015625 60.667969 617.972656 61.464844 C 618.921875 62.25 619.902344 62.953125 621.035156 63.589844 C 621.980469 64.117188 623.054688 65.125 624.0625 65.742188 C 625.753906 66.777344 635.152344 74.203125 636.140625 74.261719 C 635.972656 74.558594 636.640625 75.054688 637.277344 75.09375 L 637.175781 75.167969 L 637.789063 75.648438 L 638.378906 76.054688 L 639.523438 76.878906 L 639.410156 76.960938 C 640.105469 77.019531 640.078125 77.398438 641.257813 77.347656 L 649.222656 77.347656 L 650.363281 77.363281 L 650.929688 77.363281 L 651.503906 77.332031 L 652.78125 77.378906 C 652.535156 76.707031 645.589844 71.476563 644.363281 70.441406 C 642.984375 69.277344 641.488281 67.941406 640.015625 66.867188 C 639.152344 66.238281 638.605469 65.714844 638.136719 65.335938 C 637.324219 64.679688 636.371094 64.261719 636.28125 63.464844 C 636.980469 63.675781 641.023438 62.84375 642.273438 62.542969 C 642.921875 62.390625 644.777344 61.8125 645.21875 61.578125 C 645.5625 61.398438 647.839844 60.367188 647.988281 60.285156 L 648.230469 59.9375 C 649.003906 59.890625 651.253906 57.753906 651.074219 57.445313 L 651.503906 57.445313 C 651.382813 57.234375 652.46875 55.5625 652.574219 55.238281 C 652.859375 54.347656 653.054688 53.824219 653.121094 52.667969 L 653.066406 51.007813 C 653.085938 49.046875 651.78125 45.320313 649.925781 43.75 C 646.464844 40.808594 645.339844 40.886719 641.585938 40.886719 C 636.441406 40.886719 631.460938 40.886719 626.359375 40.886719 C 623.324219 40.882813 596.4375 40.773438 596.03125 40.9375 Z M 596.03125 40.9375 "/>
<g clip-path="url(#clip1)" clip-rule="nonzero">
<path style=" stroke:none;fill-rule:evenodd;fill:rgb(94.921875%,49.414063%,0%);fill-opacity:1;" d="M 737.410156 41.042969 C 736.867188 41.042969 737.359375 41.074219 736.984375 40.9375 C 736.910156 41.011719 734.046875 41.859375 733.359375 42.132813 C 732.277344 42.558594 731.175781 43.359375 730.339844 43.972656 C 728.097656 45.605469 727.378906 46.707031 726.132813 48.28125 C 723.996094 50.988281 722.476563 55.21875 722.476563 58.792969 L 722.476563 59.105469 C 722.476563 60.371094 722.589844 60.703125 722.824219 62.242188 C 722.855469 62.453125 723.050781 63.335938 723.117188 63.753906 C 723.152344 63.964844 723.386719 64.796875 723.40625 65.054688 C 723.472656 66.078125 725.070313 69.394531 725.675781 70.265625 C 727.152344 72.390625 728.046875 73.496094 730.265625 75.117188 C 732.199219 76.535156 735.8125 77.414063 737.980469 77.347656 L 777.804688 77.347656 L 778.945313 77.378906 C 780.964844 77.34375 781.65625 76.550781 782.808594 75.003906 C 783.058594 74.664063 783.71875 73.746094 783.96875 73.199219 C 783.980469 73.171875 784.273438 72.382813 784.285156 72.261719 C 784.339844 71.679688 784.589844 71.703125 783.925781 71.65625 L 742.964844 71.65625 L 742.390625 71.667969 C 738.046875 71.429688 734.796875 67.585938 733.519531 64.75 C 732.398438 62.269531 733.003906 58.453125 733.003906 56.613281 C 733.003906 55.078125 733.304688 53.472656 734.328125 52.175781 C 734.804688 51.570313 736.699219 48.800781 737.992188 48.71875 L 737.839844 48.515625 C 738.714844 48.464844 739.589844 47.6875 741.53125 47.683594 C 743.339844 47.679688 745.140625 47.683594 746.941406 47.683594 C 750.59375 47.683594 754.242188 47.683594 757.894531 47.683594 C 765.195313 47.683594 772.496094 47.683594 779.796875 47.683594 C 780.574219 46.835938 781.777344 45.925781 782.460938 45.066406 C 782.8125 44.613281 784.015625 42.65625 784.269531 42.210938 C 784.507813 41.785156 785.484375 41.113281 785.003906 40.871094 C 784.800781 40.773438 783.054688 40.886719 782.964844 40.886719 C 781.726563 40.886719 780.714844 40.886719 779.476563 40.886719 C 774.808594 40.886719 770.253906 40.882813 765.539063 40.886719 C 760.898438 40.886719 756.308594 40.886719 751.671875 40.886719 C 749.28125 40.886719 747.046875 40.886719 744.699219 40.886719 C 743.464844 40.886719 742.453125 40.886719 741.214844 40.886719 C 740.621094 40.886719 740.144531 40.886719 739.507813 40.886719 C 738.988281 40.886719 737.96875 41.039063 737.410156 41.039063 Z M 737.410156 41.042969 "/>
</g>
<path style=" stroke:none;fill-rule:evenodd;fill:rgb(94.921875%,49.414063%,0%);fill-opacity:1;" d="M 469.722656 45.714844 L 469.296875 45.714844 C 469.4375 45.960938 467.921875 47.488281 467.609375 47.90625 C 466.925781 48.835938 466.710938 49.296875 466.214844 50.105469 C 465.367188 51.484375 464.976563 52.964844 464.34375 54.558594 C 463.839844 55.832031 463.679688 58.125 463.679688 59.027344 C 463.675781 59.78125 464.453125 63.632813 464.320313 64.089844 C 464.503906 64.285156 465.195313 66.703125 465.371094 67.160156 C 465.851563 68.394531 466.433594 69.40625 466.949219 70.257813 C 467.488281 71.148438 468.539063 72.601563 469.039063 72.988281 C 469.503906 73.347656 470.035156 73.882813 470.523438 74.300781 C 470.949219 74.664063 471.671875 75.117188 471.574219 75.300781 C 471.714844 75.308594 474.324219 76.550781 474.945313 76.722656 C 475.664063 76.921875 478.210938 77.394531 478.546875 77.363281 L 479.109375 77.363281 L 479.679688 77.347656 L 517.230469 77.347656 L 518.367188 77.339844 L 519.648438 77.378906 L 520.644531 77.378906 C 521.847656 77.378906 521.785156 76.804688 522.636719 76.753906 C 522.46875 76.457031 523.339844 75.964844 523.636719 75.613281 C 524.039063 75.140625 524.109375 74.960938 524.441406 74.546875 C 524.972656 73.882813 525.445313 72.222656 525.765625 71.875 C 525.121094 71.355469 525.488281 71.691406 525.054688 71.65625 L 484.089844 71.65625 L 483.519531 71.667969 C 482.671875 71.621094 482.121094 71.484375 481.03125 71.097656 C 480.46875 70.894531 478.945313 70.089844 479.113281 69.796875 C 478.371094 69.753906 476.945313 67.960938 476.527344 67.53125 C 475.664063 66.652344 475.507813 65.953125 474.914063 64.964844 C 473.828125 63.144531 474.210938 61.644531 474.203125 60.222656 C 474.203125 57.40625 473.472656 54.125 476.933594 50.464844 C 478.996094 48.277344 480.15625 47.683594 484.800781 47.683594 C 488.835938 47.683594 492.859375 47.683594 496.890625 47.683594 C 504.949219 47.683594 513.011719 47.683594 521.070313 47.683594 C 521.40625 47.320313 522.410156 46.339844 522.671875 46.152344 C 523.367188 45.660156 523.566406 45.21875 524.078125 44.375 C 524.851563 43.097656 525.503906 42.148438 526.589844 40.957031 L 526.335938 40.730469 C 525.636719 41.070313 526.164063 40.832031 525.765625 40.832031 C 521.117188 40.832031 481.746094 41.199219 480.820313 40.730469 C 480.660156 40.808594 478.597656 41.097656 477.804688 41.191406 C 476.632813 41.332031 476.15625 41.519531 474.726563 42.09375 C 473.789063 42.46875 469.445313 45.21875 469.722656 45.710938 Z M 469.722656 45.714844 "/>
<path style=" stroke:none;fill-rule:evenodd;fill:rgb(94.921875%,49.414063%,0%);fill-opacity:1;" d="M 658.753906 47.683594 L 682.507813 47.683594 C 682.15625 50.769531 682.507813 56.054688 682.507813 59.625 C 682.507813 61.632813 682.507813 63.640625 682.507813 65.644531 C 682.507813 66.648438 682.507813 67.652344 682.507813 68.65625 C 682.507813 69.871094 682.972656 71.011719 681.65625 70.929688 L 670.847656 70.929688 L 670.277344 70.941406 C 669.691406 70.910156 670.28125 70.992188 669.910156 70.894531 L 658.648438 77.277344 L 658.753906 77.363281 L 659.609375 77.378906 L 660.035156 77.363281 L 660.601563 77.347656 L 703.84375 77.347656 L 704.984375 77.332031 L 706.328125 77.308594 L 710.574219 74.796875 L 710.683594 74.878906 L 710.515625 74.683594 L 710.628906 74.761719 L 713.988281 72.726563 L 714.097656 72.804688 L 713.929688 72.605469 L 714.046875 72.691406 L 716.789063 70.90625 L 716.363281 70.929688 L 691.898438 70.929688 L 691.328125 70.941406 C 691.328125 65.265625 691.328125 59.589844 691.328125 53.914063 C 691.328125 52.496094 691.328125 51.078125 691.328125 49.65625 C 691.328125 47.148438 690.867188 47.683594 694.460938 47.683594 C 698.390625 47.683594 702.328125 47.683594 706.296875 47.714844 L 709.433594 45.734375 L 709.546875 45.8125 L 709.378906 45.613281 L 709.503906 45.703125 L 713.699219 43.03125 L 713.8125 43.113281 L 713.644531 42.914063 L 713.753906 42.988281 L 716.933594 40.929688 L 716.359375 40.730469 C 715.585938 41.109375 703.949219 40.886719 702.171875 40.886719 C 697.382813 40.886719 692.8125 40.886719 688.019531 40.886719 C 683.285156 40.886719 678.601563 40.886719 673.867188 40.886719 C 672.640625 40.886719 671.605469 40.902344 670.382813 40.882813 C 669.5625 40.871094 667.382813 42.414063 666.546875 42.992188 C 666.296875 43.167969 664.863281 43.9375 664.511719 44.101563 C 664.347656 44.175781 662.804688 45.109375 662.554688 45.269531 C 661.828125 45.730469 659.050781 47.277344 658.753906 47.6875 Z M 658.753906 47.683594 "/>
<path style=" stroke:none;fill-rule:evenodd;fill:rgb(94.921875%,49.414063%,0%);fill-opacity:1;" d="M 589.203125 40.832031 L 544.253906 40.832031 C 543.128906 40.832031 542.363281 41.550781 541.308594 42.210938 C 540.253906 42.878906 539.304688 43.285156 538.253906 44.027344 C 536.945313 44.941406 532.933594 46.847656 532.164063 47.683594 C 537.523438 47.683594 542.878906 47.683594 548.238281 47.683594 C 549.238281 47.683594 555.796875 47.546875 556.011719 47.824219 C 556.136719 47.984375 556.0625 53.070313 556.0625 53.707031 C 556.0625 61.527344 556.0625 69.347656 556.0625 77.167969 C 556.289063 77.308594 556.839844 77.382813 557.054688 77.347656 L 562.746094 77.347656 L 563.882813 77.351563 L 564.738281 77.378906 C 564.8125 77.144531 564.878906 77.140625 564.878906 76.859375 L 564.878906 47.6875 L 580.007813 47.609375 L 584.257813 44.894531 L 588.816406 42.015625 L 589.171875 41.753906 L 590.3125 40.957031 L 590.054688 40.730469 C 589.378906 40.96875 589.589844 40.832031 589.203125 40.832031 Z M 589.203125 40.832031 "/>
<path style=" stroke:none;fill-rule:evenodd;fill:rgb(94.921875%,49.414063%,0%);fill-opacity:1;" d="M 346.835938 40.886719 C 346.628906 41.210938 346.761719 57.277344 346.761719 59.132813 C 346.761719 61.300781 346.351563 76.566406 346.976563 77.386719 L 348.824219 77.347656 L 384.097656 77.347656 L 385.234375 77.378906 C 387.574219 77.335938 390.421875 72.527344 389.929688 71.875 C 389.519531 71.460938 377.695313 71.71875 376.171875 71.71875 C 371.503906 71.71875 366.996094 71.71875 362.371094 71.71875 C 361.171875 71.71875 360.121094 71.71875 358.960938 71.71875 C 358.324219 71.71875 357.84375 71.71875 357.253906 71.71875 C 356.484375 71.71875 355.796875 72 355.785156 71.152344 C 355.765625 67.796875 355.796875 64.433594 355.796875 61.078125 C 355.796875 54.328125 355.796875 47.582031 355.796875 40.875 L 355.085938 40.882813 Z M 346.835938 40.886719 "/>
<path style=" stroke:none;fill-rule:evenodd;fill:rgb(94.921875%,49.414063%,0%);fill-opacity:1;" d="M 265.046875 60.039063 L 265.046875 57.859375 C 265.046875 57.414063 264.148438 56.449219 263.519531 56.183594 C 262.878906 55.910156 261.855469 55.9375 261.3125 55.9375 C 259.914063 55.9375 258.628906 55.9375 257.1875 55.9375 C 254.414063 55.9375 251.753906 55.941406 248.9375 55.9375 C 246.164063 55.9375 243.503906 55.941406 240.6875 55.9375 C 239.300781 55.9375 238.011719 55.789063 236.566406 56.121094 C 234.5625 56.582031 234.679688 58.003906 234.679688 58.921875 C 234.679688 59.785156 234.257813 61.210938 236.296875 61.929688 C 237.351563 62.304688 239.84375 62.167969 240.6875 62.167969 C 243.535156 62.167969 246.164063 62.167969 249.011719 62.167969 C 251.785156 62.167969 254.445313 62.167969 257.257813 62.167969 C 258.660156 62.167969 259.945313 62.167969 261.382813 62.167969 C 262.628906 62.167969 265.046875 61.902344 265.046875 60.039063 Z M 265.046875 60.039063 "/>
<g clip-path="url(#clip2)" clip-rule="nonzero">
<path style=" stroke:none;fill-rule:evenodd;fill:rgb(73.631287%,84.764099%,0%);fill-opacity:1;" d="M 164.164063 113.65625 L 164.164063 98.691406 L 178.589844 98.691406 L 178.589844 101.226563 L 168.09375 101.226563 L 168.09375 104.542969 L 177.859375 104.542969 L 177.859375 107.0625 L 168.09375 107.0625 L 168.09375 111.136719 L 178.964844 111.136719 L 178.964844 113.65625 Z M 210.484375 113.65625 L 206.753906 113.65625 L 206.753906 108.125 C 206.753906 106.953125 206.671875 106.199219 206.511719 105.851563 C 206.355469 105.511719 206.09375 105.242188 205.734375 105.050781 C 205.378906 104.863281 204.945313 104.765625 204.441406 104.765625 C 203.796875 104.765625 203.214844 104.902344 202.703125 105.171875 C 202.191406 105.449219 201.839844 105.808594 201.648438 106.257813 C 201.460938 106.707031 201.363281 107.535156 201.363281 108.75 L 201.363281 113.65625 L 197.632813 113.65625 L 197.632813 102.816406 L 201.09375 102.816406 L 201.09375 104.410156 C 202.328125 103.183594 203.878906 102.570313 205.742188 102.570313 C 206.5625 102.570313 207.320313 102.6875 208.003906 102.910156 C 208.679688 103.140625 209.195313 103.429688 209.546875 103.785156 C 209.894531 104.140625 210.136719 104.542969 210.273438 104.992188 C 210.414063 105.441406 210.484375 106.082031 210.484375 106.917969 Z M 237.816406 110.207031 L 241.535156 110.683594 C 241.058594 111.734375 240.304688 112.53125 239.269531 113.078125 C 238.242188 113.628906 236.953125 113.902344 235.402344 113.902344 C 232.949219 113.902344 231.136719 113.289063 229.964844 112.054688 C 229.03125 111.070313 228.5625 109.820313 228.5625 108.320313 C 228.5625 106.523438 229.175781 105.113281 230.398438 104.097656 C 231.617188 103.078125 233.164063 102.570313 235.03125 102.570313 C 237.128906 102.570313 238.78125 103.105469 239.996094 104.167969 C 241.210938 105.234375 241.785156 106.867188 241.738281 109.066406 L 232.386719 109.066406 C 232.414063 109.914063 232.714844 110.578125 233.289063 111.046875 C 233.867188 111.523438 234.589844 111.757813 235.441406 111.757813 C 236.027344 111.757813 236.515625 111.636719 236.914063 111.394531 C 237.3125 111.144531 237.617188 110.75 237.816406 110.207031 Z M 238.03125 107.308594 C 238.003906 106.476563 237.726563 105.847656 237.195313 105.414063 C 236.664063 104.980469 236.019531 104.765625 235.257813 104.765625 C 234.441406 104.765625 233.769531 104.996094 233.242188 105.453125 C 232.714844 105.90625 232.449219 106.527344 232.460938 107.308594 Z M 263.738281 113.65625 L 260.007813 113.65625 L 260.007813 102.816406 L 263.46875 102.816406 L 263.46875 104.359375 C 264.0625 103.628906 264.597656 103.148438 265.070313 102.917969 C 265.546875 102.6875 266.078125 102.570313 266.683594 102.570313 C 267.535156 102.570313 268.351563 102.75 269.136719 103.113281 L 267.984375 105.613281 C 267.359375 105.300781 266.773438 105.144531 266.234375 105.144531 C 265.710938 105.144531 265.269531 105.253906 264.90625 105.476563 C 264.539063 105.695313 264.257813 106.097656 264.050781 106.675781 C 263.839844 107.253906 263.738281 108.464844 263.738281 110.308594 Z M 285.796875 114.371094 L 290.050781 114.769531 C 290.128906 115.152344 290.285156 115.414063 290.539063 115.554688 C 290.894531 115.761719 291.460938 115.863281 292.214844 115.863281 C 293.1875 115.863281 293.921875 115.75 294.40625 115.523438 C 294.730469 115.375 294.980469 115.136719 295.148438 114.800781 C 295.261719 114.5625 295.320313 114.125 295.320313 113.484375 L 295.320313 111.902344 C 294.210938 113.074219 292.796875 113.65625 291.097656 113.65625 C 289.203125 113.65625 287.703125 113.039063 286.597656 111.8125 C 285.734375 110.835938 285.296875 109.625 285.296875 108.175781 C 285.296875 106.359375 285.867188 104.972656 287.007813 104.007813 C 288.144531 103.050781 289.558594 102.570313 291.246094 102.570313 C 292.988281 102.570313 294.429688 103.160156 295.5625 104.335938 L 295.5625 102.816406 L 299.050781 102.816406 L 299.050781 112.546875 C 299.050781 113.824219 298.914063 114.78125 298.636719 115.414063 C 298.367188 116.046875 297.980469 116.542969 297.488281 116.90625 C 296.988281 117.265625 296.328125 117.546875 295.503906 117.75 C 294.671875 117.953125 293.628906 118.058594 292.363281 118.058594 C 289.96875 118.058594 288.273438 117.742188 287.277344 117.113281 C 286.277344 116.484375 285.777344 115.683594 285.777344 114.71875 C 285.777344 114.621094 285.78125 114.507813 285.796875 114.371094 Z M 289.121094 108.011719 C 289.121094 109.164063 289.414063 110.007813 289.992188 110.539063 C 290.570313 111.070313 291.285156 111.339844 292.136719 111.339844 C 293.046875 111.339844 293.816406 111.066406 294.445313 110.519531 C 295.070313 109.972656 295.390625 109.160156 295.390625 108.082031 C 295.390625 106.960938 295.089844 106.128906 294.484375 105.585938 C 293.882813 105.039063 293.128906 104.765625 292.203125 104.765625 C 291.304688 104.765625 290.570313 105.035156 289.992188 105.566406 C 289.414063 106.105469 289.121094 106.914063 289.121094 108.011719 Z M 316.367188 102.816406 L 320.339844 102.816406 L 323.710938 110.515625 L 327.003906 102.816406 L 330.859375 102.816406 L 325.886719 113.25 L 324.992188 115.136719 C 324.671875 115.769531 324.355469 116.253906 324.058594 116.585938 C 323.761719 116.921875 323.421875 117.191406 323.035156 117.398438 C 322.648438 117.605469 322.179688 117.769531 321.617188 117.882813 C 321.054688 118 320.421875 118.058594 319.714844 118.058594 C 318.992188 118.058594 318.296875 118 317.597656 117.882813 L 317.265625 115.636719 C 317.851563 115.726563 318.378906 115.769531 318.847656 115.769531 C 319.714844 115.769531 320.359375 115.574219 320.773438 115.183594 C 321.1875 114.792969 321.507813 114.296875 321.730469 113.6875 Z M 316.367188 102.816406 "/>
</g>
<path style=" stroke:none;fill-rule:evenodd;fill:rgb(73.631287%,84.764099%,0%);fill-opacity:1;" d="M 374.304688 113.65625 L 374.304688 101.226563 L 368.53125 101.226563 L 368.53125 98.691406 L 383.996094 98.691406 L 383.996094 101.226563 L 378.238281 101.226563 L 378.238281 113.65625 Z M 405.613281 98.691406 L 405.613281 104.195313 C 406.816406 103.113281 408.253906 102.570313 409.925781 102.570313 C 410.789063 102.570313 411.558594 102.695313 412.253906 102.941406 C 412.941406 103.183594 413.464844 103.496094 413.808594 103.878906 C 414.160156 104.261719 414.398438 104.683594 414.527344 105.144531 C 414.65625 105.605469 414.722656 106.328125 414.722656 107.296875 L 414.722656 113.65625 L 410.992188 113.65625 L 410.992188 107.929688 C 410.992188 106.792969 410.921875 106.074219 410.777344 105.765625 C 410.632813 105.460938 410.382813 105.21875 410.027344 105.039063 C 409.671875 104.855469 409.21875 104.765625 408.679688 104.765625 C 408.058594 104.765625 407.507813 104.878906 407.023438 105.113281 C 406.53125 105.34375 406.175781 105.691406 405.953125 106.160156 C 405.726563 106.625 405.613281 107.316406 405.613281 108.226563 L 405.613281 113.65625 L 401.882813 113.65625 L 401.882813 98.691406 Z M 436.679688 106.125 L 433.296875 105.65625 C 433.675781 104.605469 434.328125 103.832031 435.257813 103.328125 C 436.191406 102.824219 437.570313 102.570313 439.398438 102.570313 C 441.066406 102.570313 442.304688 102.722656 443.121094 103.027344 C 443.929688 103.332031 444.503906 103.714844 444.839844 104.179688 C 445.171875 104.648438 445.339844 105.5 445.339844 106.75 L 445.296875 110.097656 C 445.296875 111.046875 445.351563 111.75 445.476563 112.203125 C 445.59375 112.652344 445.820313 113.140625 446.144531 113.65625 L 442.453125 113.65625 C 442.359375 113.464844 442.234375 113.183594 442.09375 112.8125 C 442.035156 112.640625 441.992188 112.527344 441.964844 112.472656 C 441.324219 112.949219 440.644531 113.304688 439.921875 113.546875 C 439.195313 113.78125 438.421875 113.902344 437.597656 113.902344 C 436.144531 113.902344 435.003906 113.597656 434.164063 112.996094 C 433.328125 112.390625 432.910156 111.621094 432.910156 110.695313 C 432.910156 110.085938 433.101563 109.539063 433.480469 109.058594 C 433.863281 108.578125 434.398438 108.210938 435.085938 107.957031 C 435.765625 107.703125 436.757813 107.480469 438.046875 107.289063 C 439.789063 107.039063 441.003906 106.800781 441.671875 106.585938 L 441.671875 106.300781 C 441.671875 105.746094 441.492188 105.355469 441.140625 105.117188 C 440.785156 104.882813 440.121094 104.765625 439.136719 104.765625 C 438.46875 104.765625 437.953125 104.867188 437.585938 105.070313 C 437.214844 105.265625 436.910156 105.621094 436.679688 106.125 Z M 441.671875 108.453125 C 441.195313 108.574219 440.4375 108.71875 439.398438 108.890625 C 438.367188 109.0625 437.691406 109.230469 437.371094 109.390625 C 436.882813 109.65625 436.640625 109.992188 436.640625 110.398438 C 436.640625 110.804688 436.839844 111.148438 437.222656 111.441406 C 437.613281 111.734375 438.109375 111.878906 438.714844 111.878906 C 439.386719 111.878906 440.023438 111.710938 440.636719 111.371094 C 441.089844 111.113281 441.382813 110.796875 441.523438 110.421875 C 441.628906 110.175781 441.671875 109.710938 441.671875 109.023438 Z M 470.867188 102.816406 L 470.867188 105.105469 L 468.320313 105.105469 L 468.320313 109.472656 C 468.320313 110.359375 468.339844 110.875 468.390625 111.019531 C 468.441406 111.167969 468.550781 111.285156 468.722656 111.382813 C 468.894531 111.476563 469.109375 111.523438 469.351563 111.523438 C 469.703125 111.523438 470.199219 111.429688 470.855469 111.25 L 471.175781 113.472656 C 470.304688 113.757813 469.324219 113.902344 468.222656 113.902344 C 467.554688 113.902344 466.945313 113.8125 466.40625 113.644531 C 465.867188 113.46875 465.472656 113.242188 465.21875 112.96875 C 464.964844 112.691406 464.796875 112.320313 464.695313 111.847656 C 464.617188 111.519531 464.578125 110.84375 464.578125 109.828125 L 464.578125 105.105469 L 462.863281 105.105469 L 462.863281 102.816406 L 464.578125 102.816406 L 464.578125 100.660156 L 468.320313 98.988281 L 468.320313 102.816406 Z M 470.867188 102.816406 "/>
<path style=" stroke:none;fill-rule:evenodd;fill:rgb(73.631287%,84.764099%,0%);fill-opacity:1;" d="M 509.464844 113.65625 L 509.464844 98.691406 L 515.34375 98.691406 L 518.871094 108.902344 L 522.363281 98.691406 L 528.257813 98.691406 L 528.257813 113.65625 L 524.609375 113.65625 L 524.609375 101.878906 L 520.742188 113.65625 L 516.964844 113.65625 L 513.109375 101.878906 L 513.109375 113.65625 Z M 546.660156 108.082031 C 546.660156 107.132813 546.96875 106.207031 547.574219 105.316406 C 548.1875 104.425781 549.050781 103.746094 550.171875 103.277344 C 551.289063 102.808594 552.539063 102.570313 553.921875 102.570313 C 556.050781 102.570313 557.800781 103.105469 559.164063 104.167969 C 560.527344 105.234375 561.214844 106.582031 561.214844 108.207031 C 561.214844 109.847656 560.519531 111.203125 559.148438 112.285156 C 557.769531 113.363281 556.039063 113.902344 553.949219 113.902344 C 552.652344 113.902344 551.425781 113.679688 550.253906 113.230469 C 549.078125 112.78125 548.1875 112.121094 547.574219 111.253906 C 546.96875 110.386719 546.660156 109.332031 546.660156 108.082031 Z M 550.484375 108.234375 C 550.484375 109.3125 550.8125 110.136719 551.480469 110.707031 C 552.140625 111.277344 552.964844 111.5625 553.9375 111.5625 C 554.910156 111.5625 555.726563 111.277344 556.382813 110.707031 C 557.046875 110.136719 557.378906 109.304688 557.378906 108.214844 C 557.378906 107.15625 557.046875 106.335938 556.382813 105.765625 C 555.726563 105.195313 554.910156 104.910156 553.9375 104.910156 C 552.964844 104.910156 552.140625 105.195313 551.480469 105.765625 C 550.8125 106.335938 550.484375 107.164063 550.484375 108.234375 Z M 583.394531 113.65625 L 577.714844 102.816406 L 581.628906 102.816406 L 584.285156 108.351563 L 585.054688 110.199219 C 585.257813 109.726563 585.390625 109.417969 585.4375 109.265625 C 585.566406 108.960938 585.699219 108.652344 585.839844 108.351563 L 588.519531 102.816406 L 592.359375 102.816406 L 586.753906 113.65625 Z M 618.191406 110.207031 L 621.914063 110.683594 C 621.433594 111.734375 620.679688 112.53125 619.648438 113.078125 C 618.617188 113.628906 617.328125 113.902344 615.777344 113.902344 C 613.324219 113.902344 611.511719 113.289063 610.339844 112.054688 C 609.40625 111.070313 608.9375 109.820313 608.9375 108.320313 C 608.9375 106.523438 609.550781 105.113281 610.773438 104.097656 C 611.992188 103.078125 613.539063 102.570313 615.40625 102.570313 C 617.503906 102.570313 619.15625 103.105469 620.371094 104.167969 C 621.585938 105.234375 622.160156 106.867188 622.113281 109.066406 L 612.765625 109.066406 C 612.796875 109.914063 613.089844 110.578125 613.664063 111.046875 C 614.242188 111.523438 614.964844 111.757813 615.816406 111.757813 C 616.402344 111.757813 616.890625 111.636719 617.289063 111.394531 C 617.6875 111.144531 617.992188 110.75 618.191406 110.207031 Z M 618.40625 107.308594 C 618.378906 106.476563 618.101563 105.847656 617.570313 105.414063 C 617.046875 104.980469 616.394531 104.765625 615.632813 104.765625 C 614.816406 104.765625 614.144531 104.996094 613.617188 105.453125 C 613.089844 105.90625 612.824219 106.527344 612.835938 107.308594 Z M 639.226563 110.5625 L 642.96875 110.125 C 643.128906 110.683594 643.449219 111.105469 643.941406 111.394531 C 644.425781 111.6875 645.105469 111.832031 645.984375 111.832031 C 646.949219 111.832031 647.675781 111.695313 648.160156 111.421875 C 648.488281 111.234375 648.652344 110.972656 648.652344 110.65625 C 648.652344 110.4375 648.5625 110.257813 648.386719 110.113281 C 648.199219 109.976563 647.78125 109.851563 647.140625 109.738281 C 644.128906 109.230469 642.222656 108.761719 641.421875 108.339844 C 640.300781 107.753906 639.746094 106.941406 639.746094 105.898438 C 639.746094 104.960938 640.222656 104.167969 641.191406 103.53125 C 642.15625 102.890625 643.648438 102.570313 645.675781 102.570313 C 647.605469 102.570313 649.046875 102.816406 649.980469 103.296875 C 650.921875 103.78125 651.5625 104.492188 651.914063 105.441406 L 648.398438 105.941406 C 648.253906 105.519531 647.964844 105.195313 647.546875 104.972656 C 647.121094 104.746094 646.523438 104.632813 645.742188 104.632813 C 644.761719 104.632813 644.058594 104.738281 643.632813 104.949219 C 643.351563 105.101563 643.214844 105.296875 643.214844 105.53125 C 643.214844 105.738281 643.335938 105.910156 643.585938 106.050781 C 643.921875 106.242188 645.078125 106.511719 647.066406 106.859375 C 649.050781 107.203125 650.4375 107.628906 651.226563 108.136719 C 652.003906 108.648438 652.394531 109.359375 652.394531 110.265625 C 652.394531 111.261719 651.855469 112.117188 650.773438 112.832031 C 649.695313 113.546875 648.101563 113.902344 645.984375 113.902344 C 644.0625 113.902344 642.546875 113.601563 641.421875 113.003906 C 640.300781 112.40625 639.570313 111.589844 639.226563 110.5625 Z M 639.226563 110.5625 "/>
<path style=" stroke:none;fill-rule:evenodd;fill:rgb(73.631287%,84.764099%,0%);fill-opacity:1;" d="M 693.222656 113.65625 L 693.222656 98.816406 L 697.148438 98.816406 L 697.148438 111.136719 L 706.921875 111.136719 L 706.921875 113.65625 Z M 725.089844 98.691406 L 728.816406 98.691406 L 728.816406 101.347656 L 725.089844 101.347656 Z M 725.089844 102.816406 L 728.816406 102.816406 L 728.816406 113.65625 L 725.089844 113.65625 Z M 746.394531 102.816406 L 748.464844 102.816406 L 748.464844 102 C 748.464844 101.089844 748.589844 100.40625 748.84375 99.957031 C 749.097656 99.507813 749.558594 99.140625 750.234375 98.859375 C 750.914063 98.578125 751.773438 98.4375 752.804688 98.4375 C 753.871094 98.4375 754.90625 98.558594 755.925781 98.804688 L 755.425781 100.808594 C 754.835938 100.695313 754.257813 100.644531 753.714844 100.644531 C 753.171875 100.644531 752.78125 100.738281 752.546875 100.933594 C 752.3125 101.128906 752.199219 101.5 752.199219 102.050781 L 752.199219 102.816406 L 754.984375 102.816406 L 754.984375 105.074219 L 752.199219 105.074219 L 752.199219 113.65625 L 748.464844 113.65625 L 748.464844 105.074219 L 746.394531 105.074219 Z M 780.632813 110.207031 L 784.351563 110.683594 C 783.871094 111.734375 783.121094 112.53125 782.089844 113.078125 C 781.058594 113.628906 779.765625 113.902344 778.21875 113.902344 C 775.765625 113.902344 773.953125 113.289063 772.773438 112.054688 C 771.847656 111.070313 771.378906 109.820313 771.378906 108.320313 C 771.378906 106.523438 771.992188 105.113281 773.214844 104.097656 C 774.433594 103.078125 775.980469 102.570313 777.84375 102.570313 C 779.945313 102.570313 781.597656 103.105469 782.8125 104.167969 C 784.023438 105.234375 784.601563 106.867188 784.550781 109.066406 L 775.203125 109.066406 C 775.230469 109.914063 775.53125 110.578125 776.105469 111.046875 C 776.679688 111.523438 777.402344 111.757813 778.257813 111.757813 C 778.84375 111.757813 779.335938 111.636719 779.730469 111.394531 C 780.128906 111.144531 780.433594 110.75 780.632813 110.207031 Z M 780.84375 107.308594 C 780.816406 106.476563 780.546875 105.847656 780.011719 105.414063 C 779.480469 104.980469 778.835938 104.765625 778.070313 104.765625 C 777.257813 104.765625 776.589844 104.996094 776.054688 105.453125 C 775.527344 105.90625 775.261719 106.527344 775.273438 107.308594 Z M 780.84375 107.308594 "/>
<path style=" stroke:none;fill-rule:evenodd;fill:rgb(94.921875%,49.414063%,0%);fill-opacity:1;" d="M 29.769531 -0.0585938 C 0.00390625 33.917969 24.140625 59.875 69.660156 81.890625 C 93.421875 93.382813 116.539063 94.980469 149.949219 114.0625 C 131.117188 93.09375 115.054688 64.566406 91.140625 44.757813 C 72.078125 28.960938 38.070313 24.964844 29.769531 -0.0585938 Z M 29.769531 -0.0585938 "/>
</g>
</svg>
